<svg xmlns="http://www.w3.org/2000/svg" xmlns:xlink="http://www.w3.org/1999/xlink" width="500" zoomAndPan="magnify" viewBox="0 0 375 374.999991" height="500" preserveAspectRatio="xMidYMid meet" version="1.0"><defs><g/><clipPath id="abbfcb2cb4"><path d="M 129.402344 79.960938 L 245.652344 79.960938 L 245.652344 196 L 129.402344 196 Z M 129.402344 79.960938 " clip-rule="nonzero"/></clipPath><clipPath id="07ba3f5cfb"><path d="M 187 79.960938 L 241 79.960938 L 241 110 L 187 110 Z M 187 79.960938 " clip-rule="nonzero"/></clipPath></defs><path fill="#ffffff" d="M 185.355469 148.046875 C 180.863281 148.046875 177.207031 144.390625 177.207031 139.898438 L 177.207031 80.265625 L 158.445312 80.265625 L 158.445312 146.023438 C 158.445312 146.527344 159.316406 151.617188 162.578125 156.648438 C 165.550781 161.246094 171.234375 166.785156 181.421875 167.105469 L 216.542969 167.105469 L 216.542969 148.042969 L 185.355469 148.042969 Z M 185.355469 148.046875 " fill-opacity="1" fill-rule="nonzero"/><g clip-path="url(#abbfcb2cb4)"><path fill="#ffffff" d="M 187.195312 118.996094 L 187.195312 130.398438 C 187.195312 134.789062 190.765625 138.363281 195.15625 138.363281 L 226.832031 138.363281 L 226.832031 176.183594 L 176.152344 176.183594 C 170.265625 174.230469 164.789062 170.914062 160.308594 166.585938 C 159.847656 166.136719 159.394531 165.683594 158.972656 165.234375 C 154.433594 160.4375 151.066406 154.570312 149.222656 148.261719 C 148.933594 147.273438 148.679688 146.261719 148.464844 145.246094 L 148.464844 79.964844 L 129.402344 79.964844 L 129.402344 138.082031 C 129.410156 138.167969 130.082031 146.796875 130.234375 148.375 C 130.746094 153.90625 132.132812 159.289062 134.359375 164.367188 C 134.753906 165.265625 135.160156 166.132812 135.574219 166.941406 C 137.320312 170.40625 139.464844 173.679688 141.949219 176.679688 C 143.785156 178.894531 145.808594 180.964844 147.964844 182.832031 C 151.214844 185.652344 154.796875 188.058594 158.617188 189.984375 C 164.136719 192.773438 176.710938 195.8125 176.835938 195.84375 L 245.59375 195.851562 L 245.59375 118.996094 Z M 187.195312 118.996094 " fill-opacity="1" fill-rule="nonzero"/></g><g clip-path="url(#07ba3f5cfb)"><path fill="#ffffff" d="M 216.054688 108.886719 C 216.328125 109.105469 216.601562 109.324219 216.875 109.546875 L 216.957031 109.617188 L 240.527344 109.617188 L 240.320312 109.183594 C 237.210938 102.609375 232.839844 96.851562 227.332031 92.074219 C 224 89.183594 220.316406 86.726562 216.375 84.765625 C 211.992188 82.585938 207.324219 81.042969 202.511719 80.179688 C 201.707031 80.039062 200.898438 79.964844 200.101562 79.964844 L 187.195312 79.964844 L 187.195312 98.8125 L 187.476562 98.828125 C 198.917969 99.554688 208.53125 102.941406 216.054688 108.886719 Z M 216.054688 108.886719 " fill-opacity="1" fill-rule="nonzero"/></g><g fill="#ffffff" fill-opacity="1"><g transform="translate(95.449282, 247.313245)"><g><path d="M 2.234375 -2.5 C 3.335938 -2.664062 4.09375 -3.007812 4.5 -3.53125 C 4.90625 -4.0625 5.109375 -4.96875 5.109375 -6.25 L 5.15625 -23 C 5.15625 -23.90625 5.050781 -24.507812 4.84375 -24.8125 C 4.644531 -25.125 4.226562 -25.28125 3.59375 -25.28125 L 2.234375 -25.234375 L 2.015625 -25.578125 L 2.359375 -28.125 L 8.21875 -28.078125 C 9.039062 -28.078125 10.226562 -28.117188 11.78125 -28.203125 C 13.34375 -28.296875 14.375 -28.359375 14.875 -28.390625 L 14.5625 -25.359375 C 13.570312 -25.242188 12.847656 -25.078125 12.390625 -24.859375 C 11.941406 -24.640625 11.648438 -24.332031 11.515625 -23.9375 C 11.390625 -23.550781 11.296875 -22.929688 11.234375 -22.078125 C 10.921875 -17.710938 10.765625 -12.363281 10.765625 -6.03125 C 10.765625 -5.25 10.835938 -4.675781 10.984375 -4.3125 C 11.128906 -3.945312 11.390625 -3.695312 11.765625 -3.5625 C 12.140625 -3.4375 12.722656 -3.375 13.515625 -3.375 C 14.972656 -3.375 16.054688 -3.53125 16.765625 -3.84375 C 17.484375 -4.164062 18.015625 -4.78125 18.359375 -5.6875 C 18.710938 -6.59375 19.007812 -8.019531 19.25 -9.96875 L 22.78125 -10.359375 L 23.09375 -9.921875 C 23 -9.367188 22.828125 -8.125 22.578125 -6.1875 C 22.335938 -4.25 22.128906 -2.21875 21.953125 -0.09375 L 21.515625 0.34375 C 20.734375 0.320312 19.03125 0.257812 16.40625 0.15625 C 13.78125 0.0507812 11.398438 0 9.265625 0 C 7.660156 0 6.128906 0.0546875 4.671875 0.171875 C 3.222656 0.285156 2.289062 0.375 1.875 0.4375 Z M 2.234375 -2.5 "/></g></g></g><g fill="#ffffff" fill-opacity="1"><g transform="translate(120.196728, 247.313245)"><g><path d="M 13.78125 0.53125 C 11.207031 0.53125 8.976562 -0.03125 7.09375 -1.15625 C 5.21875 -2.28125 3.773438 -3.875 2.765625 -5.9375 C 1.765625 -8.007812 1.265625 -10.460938 1.265625 -13.296875 C 1.265625 -16.328125 1.863281 -18.992188 3.0625 -21.296875 C 4.257812 -23.597656 5.941406 -25.390625 8.109375 -26.671875 C 10.285156 -27.960938 12.785156 -28.609375 15.609375 -28.609375 C 18.234375 -28.609375 20.5 -28.0625 22.40625 -26.96875 C 24.320312 -25.875 25.78125 -24.296875 26.78125 -22.234375 C 27.789062 -20.179688 28.296875 -17.738281 28.296875 -14.90625 C 28.296875 -11.875 27.691406 -9.1875 26.484375 -6.84375 C 25.273438 -4.5 23.566406 -2.679688 21.359375 -1.390625 C 19.160156 -0.109375 16.632812 0.53125 13.78125 0.53125 Z M 14.90625 -3.1875 C 17.007812 -3.1875 18.648438 -4.007812 19.828125 -5.65625 C 21.015625 -7.3125 21.609375 -9.640625 21.609375 -12.640625 C 21.609375 -16.460938 20.976562 -19.382812 19.71875 -21.40625 C 18.46875 -23.4375 16.691406 -24.453125 14.390625 -24.453125 C 12.316406 -24.453125 10.703125 -23.625 9.546875 -21.96875 C 8.398438 -20.320312 7.828125 -18 7.828125 -15 C 7.828125 -11.175781 8.445312 -8.25 9.6875 -6.21875 C 10.925781 -4.195312 12.664062 -3.1875 14.90625 -3.1875 Z M 14.90625 -3.1875 "/></g></g></g><g fill="#ffffff" fill-opacity="1"><g transform="translate(151.28396, 247.313245)"><g><path d="M 23.046875 1.1875 C 20.191406 -3.363281 17.3125 -7.796875 14.40625 -12.109375 C 11.507812 -16.429688 10.0625 -18.5625 10.0625 -18.5 L 9.671875 -18.5 L 9.625 -4.71875 C 9.625 -3.96875 9.734375 -3.453125 9.953125 -3.171875 C 10.171875 -2.890625 10.554688 -2.75 11.109375 -2.75 L 13.03125 -2.84375 L 13.25 -2.578125 L 12.8125 0.171875 C 12.40625 0.140625 11.644531 0.101562 10.53125 0.0625 C 9.425781 0.0195312 8.320312 0 7.21875 0 C 6.25 0 5.210938 0.0507812 4.109375 0.15625 C 3.003906 0.257812 2.289062 0.320312 1.96875 0.34375 L 2.28125 -2.53125 C 3.175781 -2.65625 3.828125 -2.925781 4.234375 -3.34375 C 4.648438 -3.769531 4.867188 -4.421875 4.890625 -5.296875 L 5.421875 -22.65625 C 5.421875 -23.582031 5.1875 -24.234375 4.71875 -24.609375 C 4.257812 -24.992188 3.3125 -25.257812 1.875 -25.40625 L 1.578125 -25.796875 L 1.875 -28.296875 C 2.195312 -28.265625 2.882812 -28.21875 3.9375 -28.15625 C 4.988281 -28.101562 5.960938 -28.078125 6.859375 -28.078125 C 7.617188 -28.078125 8.425781 -28.097656 9.28125 -28.140625 C 10.144531 -28.179688 10.710938 -28.21875 10.984375 -28.25 C 13.367188 -24.34375 15.9375 -20.316406 18.6875 -16.171875 C 21.445312 -12.035156 22.828125 -10 22.828125 -10.0625 L 23.265625 -10.0625 L 23.171875 -23.390625 C 23.148438 -24.066406 23.03125 -24.550781 22.8125 -24.84375 C 22.59375 -25.132812 22.234375 -25.28125 21.734375 -25.28125 L 20.203125 -25.234375 L 20.078125 -25.546875 L 20.375 -28.25 C 20.789062 -28.21875 21.539062 -28.179688 22.625 -28.140625 C 23.71875 -28.097656 24.820312 -28.078125 25.9375 -28.078125 C 26.8125 -28.078125 27.796875 -28.101562 28.890625 -28.15625 C 29.984375 -28.21875 30.703125 -28.265625 31.046875 -28.296875 L 30.828125 -25.40625 C 29.835938 -25.257812 29.128906 -24.984375 28.703125 -24.578125 C 28.285156 -24.171875 28.0625 -23.53125 28.03125 -22.65625 L 27.46875 0.609375 Z M 23.046875 1.1875 "/></g></g></g><g fill="#ffffff" fill-opacity="1"><g transform="translate(184.688495, 247.313245)"><g><path d="M 13.90625 0.53125 C 13.4375 0.46875 12.476562 0.363281 11.03125 0.21875 C 9.59375 0.0703125 8.347656 0 7.296875 0 C 6.335938 0 5.257812 0.0546875 4.0625 0.171875 C 2.875 0.285156 2.101562 0.375 1.75 0.4375 L 2.015625 -2.5 C 3.265625 -2.695312 4.109375 -3.054688 4.546875 -3.578125 C 4.984375 -4.109375 5.203125 -4.984375 5.203125 -6.203125 L 5.203125 -22.875 C 5.203125 -23.800781 5.113281 -24.425781 4.9375 -24.75 C 4.757812 -25.070312 4.394531 -25.234375 3.84375 -25.234375 C 3.53125 -25.234375 3.226562 -25.21875 2.9375 -25.1875 C 2.644531 -25.15625 2.453125 -25.140625 2.359375 -25.140625 L 2.140625 -25.546875 L 2.5 -28.203125 C 2.90625 -28.203125 3.660156 -28.179688 4.765625 -28.140625 C 5.867188 -28.097656 6.945312 -28.078125 8 -28.078125 C 9.28125 -28.078125 10.617188 -28.097656 12.015625 -28.140625 C 13.421875 -28.179688 14.382812 -28.21875 14.90625 -28.25 C 17.820312 -28.25 20.34375 -27.722656 22.46875 -26.671875 C 24.601562 -25.628906 26.238281 -24.128906 27.375 -22.171875 C 28.507812 -20.222656 29.078125 -17.890625 29.078125 -15.171875 C 29.078125 -12.140625 28.425781 -9.425781 27.125 -7.03125 C 25.832031 -4.644531 24.035156 -2.785156 21.734375 -1.453125 C 19.429688 -0.128906 16.820312 0.53125 13.90625 0.53125 Z M 12.546875 -24.578125 C 12.085938 -24.578125 11.769531 -24.503906 11.59375 -24.359375 C 11.414062 -24.210938 11.3125 -23.9375 11.28125 -23.53125 C 10.90625 -15.394531 10.71875 -9.664062 10.71875 -6.34375 C 10.71875 -5.46875 10.816406 -4.800781 11.015625 -4.34375 C 11.222656 -3.894531 11.597656 -3.582031 12.140625 -3.40625 C 12.679688 -3.238281 13.457031 -3.15625 14.46875 -3.15625 C 17.039062 -3.15625 19.003906 -4.054688 20.359375 -5.859375 C 21.710938 -7.671875 22.390625 -10.320312 22.390625 -13.8125 C 22.390625 -17.519531 21.578125 -20.238281 19.953125 -21.96875 C 18.335938 -23.707031 15.867188 -24.578125 12.546875 -24.578125 Z M 12.546875 -24.578125 "/></g></g></g><g fill="#ffffff" fill-opacity="1"><g transform="translate(216.606466, 247.313245)"><g><path d="M 13.78125 0.53125 C 11.207031 0.53125 8.976562 -0.03125 7.09375 -1.15625 C 5.21875 -2.28125 3.773438 -3.875 2.765625 -5.9375 C 1.765625 -8.007812 1.265625 -10.460938 1.265625 -13.296875 C 1.265625 -16.328125 1.863281 -18.992188 3.0625 -21.296875 C 4.257812 -23.597656 5.941406 -25.390625 8.109375 -26.671875 C 10.285156 -27.960938 12.785156 -28.609375 15.609375 -28.609375 C 18.234375 -28.609375 20.5 -28.0625 22.40625 -26.96875 C 24.320312 -25.875 25.78125 -24.296875 26.78125 -22.234375 C 27.789062 -20.179688 28.296875 -17.738281 28.296875 -14.90625 C 28.296875 -11.875 27.691406 -9.1875 26.484375 -6.84375 C 25.273438 -4.5 23.566406 -2.679688 21.359375 -1.390625 C 19.160156 -0.109375 16.632812 0.53125 13.78125 0.53125 Z M 14.90625 -3.1875 C 17.007812 -3.1875 18.648438 -4.007812 19.828125 -5.65625 C 21.015625 -7.3125 21.609375 -9.640625 21.609375 -12.640625 C 21.609375 -16.460938 20.976562 -19.382812 19.71875 -21.40625 C 18.46875 -23.4375 16.691406 -24.453125 14.390625 -24.453125 C 12.316406 -24.453125 10.703125 -23.625 9.546875 -21.96875 C 8.398438 -20.320312 7.828125 -18 7.828125 -15 C 7.828125 -11.175781 8.445312 -8.25 9.6875 -6.21875 C 10.925781 -4.195312 12.664062 -3.1875 14.90625 -3.1875 Z M 14.90625 -3.1875 "/></g></g></g><g fill="#ffffff" fill-opacity="1"><g transform="translate(247.693699, 247.313245)"><g><path d="M 23.046875 1.1875 C 20.191406 -3.363281 17.3125 -7.796875 14.40625 -12.109375 C 11.507812 -16.429688 10.0625 -18.5625 10.0625 -18.5 L 9.671875 -18.5 L 9.625 -4.71875 C 9.625 -3.96875 9.734375 -3.453125 9.953125 -3.171875 C 10.171875 -2.890625 10.554688 -2.75 11.109375 -2.75 L 13.03125 -2.84375 L 13.25 -2.578125 L 12.8125 0.171875 C 12.40625 0.140625 11.644531 0.101562 10.53125 0.0625 C 9.425781 0.0195312 8.320312 0 7.21875 0 C 6.25 0 5.210938 0.0507812 4.109375 0.15625 C 3.003906 0.257812 2.289062 0.320312 1.96875 0.34375 L 2.28125 -2.53125 C 3.175781 -2.65625 3.828125 -2.925781 4.234375 -3.34375 C 4.648438 -3.769531 4.867188 -4.421875 4.890625 -5.296875 L 5.421875 -22.65625 C 5.421875 -23.582031 5.1875 -24.234375 4.71875 -24.609375 C 4.257812 -24.992188 3.3125 -25.257812 1.875 -25.40625 L 1.578125 -25.796875 L 1.875 -28.296875 C 2.195312 -28.265625 2.882812 -28.21875 3.9375 -28.15625 C 4.988281 -28.101562 5.960938 -28.078125 6.859375 -28.078125 C 7.617188 -28.078125 8.425781 -28.097656 9.28125 -28.140625 C 10.144531 -28.179688 10.710938 -28.21875 10.984375 -28.25 C 13.367188 -24.34375 15.9375 -20.316406 18.6875 -16.171875 C 21.445312 -12.035156 22.828125 -10 22.828125 -10.0625 L 23.265625 -10.0625 L 23.171875 -23.390625 C 23.148438 -24.066406 23.03125 -24.550781 22.8125 -24.84375 C 22.59375 -25.132812 22.234375 -25.28125 21.734375 -25.28125 L 20.203125 -25.234375 L 20.078125 -25.546875 L 20.375 -28.25 C 20.789062 -28.21875 21.539062 -28.179688 22.625 -28.140625 C 23.71875 -28.097656 24.820312 -28.078125 25.9375 -28.078125 C 26.8125 -28.078125 27.796875 -28.101562 28.890625 -28.15625 C 29.984375 -28.21875 30.703125 -28.265625 31.046875 -28.296875 L 30.828125 -25.40625 C 29.835938 -25.257812 29.128906 -24.984375 28.703125 -24.578125 C 28.285156 -24.171875 28.0625 -23.53125 28.03125 -22.65625 L 27.46875 0.609375 Z M 23.046875 1.1875 "/></g></g></g><g fill="#ffffff" fill-opacity="1"><g transform="translate(95.736993, 286.601583)"><g><path d="M 10 0.359375 C 8.125 0.359375 6.503906 -0.0234375 5.140625 -0.796875 C 3.773438 -1.566406 2.722656 -2.675781 1.984375 -4.125 C 1.253906 -5.570312 0.890625 -7.285156 0.890625 -9.265625 C 0.890625 -11.472656 1.328125 -13.378906 2.203125 -14.984375 C 3.078125 -16.597656 4.328125 -17.835938 5.953125 -18.703125 C 7.585938 -19.578125 9.519531 -20.015625 11.75 -20.015625 C 12.539062 -20.015625 13.382812 -19.957031 14.28125 -19.84375 C 15.1875 -19.726562 15.953125 -19.609375 16.578125 -19.484375 C 17.210938 -19.359375 17.625 -19.28125 17.8125 -19.25 L 18.015625 -18.84375 C 17.972656 -18.71875 17.898438 -18.40625 17.796875 -17.90625 C 17.703125 -17.40625 17.597656 -16.742188 17.484375 -15.921875 C 17.367188 -15.097656 17.28125 -14.21875 17.21875 -13.28125 L 14.28125 -13.0625 C 14.300781 -13.144531 14.320312 -13.335938 14.34375 -13.640625 C 14.363281 -13.953125 14.375 -14.320312 14.375 -14.75 C 14.375 -15.601562 14.113281 -16.207031 13.59375 -16.5625 C 13.070312 -16.925781 12.210938 -17.109375 11.015625 -17.109375 C 9.160156 -17.109375 7.769531 -16.550781 6.84375 -15.4375 C 5.925781 -14.320312 5.46875 -12.613281 5.46875 -10.3125 C 5.46875 -7.800781 5.929688 -5.859375 6.859375 -4.484375 C 7.796875 -3.109375 9.085938 -2.421875 10.734375 -2.421875 C 11.285156 -2.421875 11.785156 -2.476562 12.234375 -2.59375 C 12.679688 -2.71875 13.03125 -2.847656 13.28125 -2.984375 C 13.539062 -3.117188 13.703125 -3.207031 13.765625 -3.25 L 13.765625 -6.15625 C 13.765625 -6.738281 13.671875 -7.128906 13.484375 -7.328125 C 13.304688 -7.523438 12.941406 -7.625 12.390625 -7.625 L 10.796875 -7.625 L 10.640625 -7.859375 L 10.953125 -10.03125 C 11.441406 -10.03125 11.859375 -10.019531 12.203125 -10 C 13.347656 -9.957031 14.347656 -9.9375 15.203125 -9.9375 C 15.835938 -9.9375 16.457031 -9.957031 17.0625 -10 C 17.675781 -10.039062 18.078125 -10.070312 18.265625 -10.09375 L 18.484375 -8.9375 C 18.128906 -8.707031 17.863281 -8.425781 17.6875 -8.09375 C 17.519531 -7.757812 17.40625 -7.28125 17.34375 -6.65625 C 17.28125 -6.03125 17.25 -5.117188 17.25 -3.921875 C 17.25 -2.691406 17.320312 -1.800781 17.46875 -1.25 L 17.1875 -0.890625 C 17.1875 -0.867188 16.84375 -0.742188 16.15625 -0.515625 C 15.476562 -0.296875 14.601562 -0.0976562 13.53125 0.078125 C 12.46875 0.265625 11.289062 0.359375 10 0.359375 Z M 10 0.359375 "/></g></g></g><g fill="#ffffff" fill-opacity="1"><g transform="translate(120.154824, 286.601583)"><g><path d="M 9.703125 0.359375 C 4.984375 0.359375 2.625 -1.835938 2.625 -6.234375 L 2.625 -16.03125 C 2.625 -16.707031 2.554688 -17.148438 2.421875 -17.359375 C 2.296875 -17.578125 2.03125 -17.6875 1.625 -17.6875 C 1.414062 -17.6875 1.210938 -17.675781 1.015625 -17.65625 C 0.828125 -17.632812 0.703125 -17.625 0.640625 -17.625 L 0.578125 -17.75 L 0.859375 -19.734375 C 1.140625 -19.710938 1.691406 -19.691406 2.515625 -19.671875 C 3.347656 -19.648438 4.234375 -19.640625 5.171875 -19.640625 C 5.703125 -19.640625 6.375 -19.664062 7.1875 -19.71875 C 8 -19.769531 8.539062 -19.804688 8.8125 -19.828125 L 8.59375 -17.8125 C 7.945312 -17.726562 7.503906 -17.566406 7.265625 -17.328125 C 7.035156 -17.097656 6.898438 -16.707031 6.859375 -16.15625 L 6.640625 -7.21875 C 6.640625 -5.664062 6.96875 -4.46875 7.625 -3.625 C 8.289062 -2.78125 9.25 -2.359375 10.5 -2.359375 C 13.039062 -2.359375 14.3125 -3.703125 14.3125 -6.390625 C 14.3125 -7.960938 14.296875 -9.757812 14.265625 -11.78125 C 14.234375 -13.800781 14.210938 -15.21875 14.203125 -16.03125 C 14.179688 -16.707031 14.109375 -17.148438 13.984375 -17.359375 C 13.859375 -17.578125 13.601562 -17.6875 13.21875 -17.6875 C 13.007812 -17.6875 12.800781 -17.675781 12.59375 -17.65625 C 12.394531 -17.632812 12.253906 -17.625 12.171875 -17.625 L 12.109375 -17.75 L 12.390625 -19.734375 C 12.648438 -19.734375 13.132812 -19.71875 13.84375 -19.6875 C 14.550781 -19.65625 15.25 -19.640625 15.9375 -19.640625 C 16.59375 -19.640625 17.300781 -19.664062 18.0625 -19.71875 C 18.832031 -19.769531 19.328125 -19.804688 19.546875 -19.828125 L 19.359375 -17.84375 C 18.816406 -17.71875 18.421875 -17.601562 18.171875 -17.5 C 17.929688 -17.394531 17.769531 -17.25 17.6875 -17.0625 C 17.601562 -16.882812 17.5625 -16.613281 17.5625 -16.25 L 17.5625 -6.734375 C 17.5625 -4.441406 16.882812 -2.6875 15.53125 -1.46875 C 14.1875 -0.25 12.242188 0.359375 9.703125 0.359375 Z M 9.703125 0.359375 "/></g></g></g><g fill="#ffffff" fill-opacity="1"><g transform="translate(144.664449, 286.601583)"><g><path d="M 10.125 0 L 10.28125 -1.8125 C 10.96875 -1.863281 11.46875 -1.925781 11.78125 -2 C 12.101562 -2.070312 12.328125 -2.175781 12.453125 -2.3125 C 12.578125 -2.445312 12.640625 -2.644531 12.640625 -2.90625 C 12.640625 -3.15625 12.585938 -3.515625 12.484375 -3.984375 L 11.84375 -6.328125 C 10.78125 -6.367188 9.84375 -6.390625 9.03125 -6.390625 C 8.65625 -6.390625 7.890625 -6.335938 6.734375 -6.234375 L 6.09375 -6.1875 L 5.328125 -3.828125 C 5.203125 -3.378906 5.140625 -3.0625 5.140625 -2.875 C 5.140625 -2.507812 5.242188 -2.253906 5.453125 -2.109375 C 5.671875 -1.960938 6.046875 -1.890625 6.578125 -1.890625 L 7.890625 -1.890625 L 8.046875 -1.6875 L 7.828125 0.1875 C 7.546875 0.164062 6.9375 0.128906 6 0.078125 C 5.0625 0.0234375 4.179688 0 3.359375 0 C 2.503906 0 1.734375 0.0078125 1.046875 0.03125 C 0.367188 0.0507812 -0.0820312 0.0703125 -0.3125 0.09375 L -0.09375 -1.890625 C 0.375 -1.972656 0.757812 -2.164062 1.0625 -2.46875 C 1.375 -2.78125 1.660156 -3.285156 1.921875 -3.984375 L 7.40625 -19.484375 L 12.078125 -19.984375 L 12.421875 -19.828125 C 12.722656 -18.660156 13.359375 -16.273438 14.328125 -12.671875 C 15.296875 -9.078125 16.128906 -6.1875 16.828125 -4 C 17.046875 -3.269531 17.328125 -2.75 17.671875 -2.4375 C 18.023438 -2.132812 18.550781 -1.953125 19.25 -1.890625 L 19.359375 -1.6875 L 19.15625 0.09375 C 18.882812 0.0703125 18.378906 0.0507812 17.640625 0.03125 C 16.910156 0.0078125 16.171875 0 15.421875 0 C 14.335938 0 13.28125 0.0351562 12.25 0.109375 C 11.21875 0.179688 10.5625 0.226562 10.28125 0.25 Z M 9.03125 -8.75 C 9.25 -8.75 10 -8.78125 11.28125 -8.84375 L 9.484375 -15.65625 L 9.09375 -15.65625 L 6.828125 -8.75 Z M 9.03125 -8.75 "/></g></g></g><g fill="#ffffff" fill-opacity="1"><g transform="translate(168.194953, 286.601583)"><g><path d="M 15.71875 0.484375 C 14.394531 0.484375 13.285156 -0.460938 12.390625 -2.359375 L 9.734375 -7.734375 L 7.5625 -7.734375 L 7.5 -4.28125 C 7.5 -3.570312 7.546875 -3.054688 7.640625 -2.734375 C 7.742188 -2.421875 7.9375 -2.210938 8.21875 -2.109375 C 8.507812 -2.003906 9.003906 -1.941406 9.703125 -1.921875 L 9.796875 -1.75 L 9.515625 0.125 C 9.148438 0.101562 8.503906 0.0820312 7.578125 0.0625 C 6.660156 0.0390625 5.816406 0.03125 5.046875 0.03125 C 4.296875 0.03125 3.519531 0.0507812 2.71875 0.09375 C 1.925781 0.132812 1.40625 0.164062 1.15625 0.1875 L 1.4375 -1.828125 C 2.289062 -1.929688 2.863281 -2.15625 3.15625 -2.5 C 3.457031 -2.851562 3.609375 -3.46875 3.609375 -4.34375 L 3.609375 -16.1875 C 3.609375 -16.78125 3.539062 -17.175781 3.40625 -17.375 C 3.28125 -17.582031 3.019531 -17.6875 2.625 -17.6875 C 2.40625 -17.6875 2.191406 -17.675781 1.984375 -17.65625 C 1.785156 -17.632812 1.65625 -17.625 1.59375 -17.625 L 1.40625 -17.859375 L 1.6875 -19.703125 C 1.96875 -19.703125 2.488281 -19.691406 3.25 -19.671875 C 4.019531 -19.648438 4.769531 -19.640625 5.5 -19.640625 C 6.320312 -19.640625 7.207031 -19.65625 8.15625 -19.6875 C 9.101562 -19.71875 9.757812 -19.742188 10.125 -19.765625 C 12.445312 -19.765625 14.222656 -19.316406 15.453125 -18.421875 C 16.691406 -17.523438 17.3125 -16.226562 17.3125 -14.53125 C 17.3125 -13.332031 16.953125 -12.234375 16.234375 -11.234375 C 15.523438 -10.234375 14.507812 -9.394531 13.1875 -8.71875 L 15.875 -4.34375 C 16.445312 -3.40625 17 -2.734375 17.53125 -2.328125 C 18.0625 -1.921875 18.648438 -1.71875 19.296875 -1.71875 L 19.515625 -1.4375 L 19.296875 0.15625 Z M 10.40625 -10.09375 C 11.070312 -10.382812 11.679688 -10.804688 12.234375 -11.359375 C 12.785156 -11.921875 13.0625 -12.796875 13.0625 -13.984375 C 13.0625 -15.097656 12.679688 -15.929688 11.921875 -16.484375 C 11.171875 -17.035156 10.007812 -17.3125 8.4375 -17.3125 C 8.238281 -17.3125 8.101562 -17.269531 8.03125 -17.1875 C 7.957031 -17.113281 7.910156 -16.929688 7.890625 -16.640625 C 7.765625 -14.535156 7.679688 -12.457031 7.640625 -10.40625 Z M 10.40625 -10.09375 "/></g></g></g><g fill="#ffffff" fill-opacity="1"><g transform="translate(192.215018, 286.601583)"><g><path d="M 9.734375 0.359375 C 9.398438 0.328125 8.726562 0.257812 7.71875 0.15625 C 6.707031 0.0507812 5.835938 0 5.109375 0 C 4.429688 0 3.675781 0.0390625 2.84375 0.125 C 2.007812 0.207031 1.46875 0.269531 1.21875 0.3125 L 1.40625 -1.75 C 2.28125 -1.882812 2.867188 -2.132812 3.171875 -2.5 C 3.484375 -2.875 3.640625 -3.488281 3.640625 -4.34375 L 3.640625 -16 C 3.640625 -16.65625 3.578125 -17.09375 3.453125 -17.3125 C 3.335938 -17.539062 3.082031 -17.65625 2.6875 -17.65625 C 2.46875 -17.65625 2.253906 -17.644531 2.046875 -17.625 C 1.847656 -17.601562 1.71875 -17.59375 1.65625 -17.59375 L 1.5 -17.859375 L 1.75 -19.734375 C 2.03125 -19.734375 2.554688 -19.71875 3.328125 -19.6875 C 4.109375 -19.65625 4.863281 -19.640625 5.59375 -19.640625 C 6.488281 -19.640625 7.425781 -19.65625 8.40625 -19.6875 C 9.382812 -19.71875 10.0625 -19.742188 10.4375 -19.765625 C 12.46875 -19.765625 14.226562 -19.394531 15.71875 -18.65625 C 17.207031 -17.925781 18.347656 -16.878906 19.140625 -15.515625 C 19.941406 -14.148438 20.34375 -12.515625 20.34375 -10.609375 C 20.34375 -8.492188 19.890625 -6.597656 18.984375 -4.921875 C 18.078125 -3.253906 16.816406 -1.957031 15.203125 -1.03125 C 13.585938 -0.101562 11.765625 0.359375 9.734375 0.359375 Z M 8.78125 -17.1875 C 8.457031 -17.1875 8.234375 -17.132812 8.109375 -17.03125 C 7.984375 -16.9375 7.910156 -16.742188 7.890625 -16.453125 C 7.628906 -10.765625 7.5 -6.757812 7.5 -4.4375 C 7.5 -3.820312 7.566406 -3.351562 7.703125 -3.03125 C 7.847656 -2.71875 8.109375 -2.5 8.484375 -2.375 C 8.867188 -2.257812 9.414062 -2.203125 10.125 -2.203125 C 11.914062 -2.203125 13.285156 -2.832031 14.234375 -4.09375 C 15.179688 -5.363281 15.65625 -7.222656 15.65625 -9.671875 C 15.65625 -12.253906 15.085938 -14.148438 13.953125 -15.359375 C 12.828125 -16.578125 11.101562 -17.1875 8.78125 -17.1875 Z M 8.78125 -17.1875 "/></g></g></g><g fill="#ffffff" fill-opacity="1"><g transform="translate(217.856752, 286.601583)"><g><path d="M 1.34375 -1.6875 C 2.238281 -1.863281 2.835938 -2.117188 3.140625 -2.453125 C 3.453125 -2.796875 3.609375 -3.394531 3.609375 -4.25 L 3.609375 -16.09375 C 3.609375 -16.726562 3.535156 -17.148438 3.390625 -17.359375 C 3.253906 -17.578125 2.960938 -17.6875 2.515625 -17.6875 L 1.4375 -17.65625 L 1.28125 -17.890625 L 1.53125 -19.671875 L 5.75 -19.640625 C 6.425781 -19.640625 7.851562 -19.710938 10.03125 -19.859375 L 9.875 -17.84375 C 9.101562 -17.738281 8.585938 -17.578125 8.328125 -17.359375 C 8.078125 -17.148438 7.929688 -16.757812 7.890625 -16.1875 C 7.628906 -11.375 7.5 -7.320312 7.5 -4.03125 C 7.5 -3.195312 7.578125 -2.632812 7.734375 -2.34375 C 7.898438 -2.0625 8.21875 -1.921875 8.6875 -1.921875 C 8.914062 -1.921875 9.363281 -1.953125 10.03125 -2.015625 L 10.15625 -1.828125 L 9.875 0.09375 L 8.78125 0.0625 L 5.390625 0 C 4.453125 0 3.039062 0.09375 1.15625 0.28125 Z M 1.34375 -1.6875 "/></g></g></g><g fill="#ffffff" fill-opacity="1"><g transform="translate(233.431896, 286.601583)"><g><path d="M 10.125 0 L 10.28125 -1.8125 C 10.96875 -1.863281 11.46875 -1.925781 11.78125 -2 C 12.101562 -2.070312 12.328125 -2.175781 12.453125 -2.3125 C 12.578125 -2.445312 12.640625 -2.644531 12.640625 -2.90625 C 12.640625 -3.15625 12.585938 -3.515625 12.484375 -3.984375 L 11.84375 -6.328125 C 10.78125 -6.367188 9.84375 -6.390625 9.03125 -6.390625 C 8.65625 -6.390625 7.890625 -6.335938 6.734375 -6.234375 L 6.09375 -6.1875 L 5.328125 -3.828125 C 5.203125 -3.378906 5.140625 -3.0625 5.140625 -2.875 C 5.140625 -2.507812 5.242188 -2.253906 5.453125 -2.109375 C 5.671875 -1.960938 6.046875 -1.890625 6.578125 -1.890625 L 7.890625 -1.890625 L 8.046875 -1.6875 L 7.828125 0.1875 C 7.546875 0.164062 6.9375 0.128906 6 0.078125 C 5.0625 0.0234375 4.179688 0 3.359375 0 C 2.503906 0 1.734375 0.0078125 1.046875 0.03125 C 0.367188 0.0507812 -0.0820312 0.0703125 -0.3125 0.09375 L -0.09375 -1.890625 C 0.375 -1.972656 0.757812 -2.164062 1.0625 -2.46875 C 1.375 -2.78125 1.660156 -3.285156 1.921875 -3.984375 L 7.40625 -19.484375 L 12.078125 -19.984375 L 12.421875 -19.828125 C 12.722656 -18.660156 13.359375 -16.273438 14.328125 -12.671875 C 15.296875 -9.078125 16.128906 -6.1875 16.828125 -4 C 17.046875 -3.269531 17.328125 -2.75 17.671875 -2.4375 C 18.023438 -2.132812 18.550781 -1.953125 19.25 -1.890625 L 19.359375 -1.6875 L 19.15625 0.09375 C 18.882812 0.0703125 18.378906 0.0507812 17.640625 0.03125 C 16.910156 0.0078125 16.171875 0 15.421875 0 C 14.335938 0 13.28125 0.0351562 12.25 0.109375 C 11.21875 0.179688 10.5625 0.226562 10.28125 0.25 Z M 9.03125 -8.75 C 9.25 -8.75 10 -8.78125 11.28125 -8.84375 L 9.484375 -15.65625 L 9.09375 -15.65625 L 6.828125 -8.75 Z M 9.03125 -8.75 "/></g></g></g><g fill="#ffffff" fill-opacity="1"><g transform="translate(256.962401, 286.601583)"><g><path d="M 16.125 0.828125 C 14.125 -2.359375 12.109375 -5.457031 10.078125 -8.46875 C 8.046875 -11.488281 7.03125 -12.976562 7.03125 -12.9375 L 6.765625 -12.9375 L 6.734375 -3.296875 C 6.734375 -2.773438 6.804688 -2.414062 6.953125 -2.21875 C 7.109375 -2.019531 7.378906 -1.921875 7.765625 -1.921875 L 9.109375 -1.984375 L 9.265625 -1.8125 L 8.96875 0.125 C 8.675781 0.101562 8.140625 0.078125 7.359375 0.046875 C 6.585938 0.015625 5.816406 0 5.046875 0 C 4.367188 0 3.644531 0.0351562 2.875 0.109375 C 2.101562 0.179688 1.601562 0.226562 1.375 0.25 L 1.59375 -1.78125 C 2.226562 -1.851562 2.6875 -2.035156 2.96875 -2.328125 C 3.25 -2.628906 3.398438 -3.085938 3.421875 -3.703125 L 3.796875 -15.84375 C 3.796875 -16.5 3.628906 -16.957031 3.296875 -17.21875 C 2.972656 -17.488281 2.3125 -17.675781 1.3125 -17.78125 L 1.09375 -18.046875 L 1.3125 -19.796875 C 1.539062 -19.773438 2.019531 -19.742188 2.75 -19.703125 C 3.488281 -19.660156 4.171875 -19.640625 4.796875 -19.640625 C 5.328125 -19.640625 5.894531 -19.65625 6.5 -19.6875 C 7.101562 -19.71875 7.492188 -19.742188 7.671875 -19.765625 C 9.347656 -17.023438 11.148438 -14.207031 13.078125 -11.3125 C 15.003906 -8.414062 15.96875 -6.988281 15.96875 -7.03125 L 16.28125 -7.03125 L 16.21875 -16.375 C 16.195312 -16.84375 16.109375 -17.175781 15.953125 -17.375 C 15.796875 -17.582031 15.546875 -17.6875 15.203125 -17.6875 L 14.140625 -17.65625 L 14.046875 -17.859375 L 14.25 -19.765625 C 14.539062 -19.742188 15.066406 -19.71875 15.828125 -19.6875 C 16.597656 -19.65625 17.367188 -19.640625 18.140625 -19.640625 C 18.753906 -19.640625 19.441406 -19.660156 20.203125 -19.703125 C 20.972656 -19.742188 21.476562 -19.773438 21.71875 -19.796875 L 21.5625 -17.78125 C 20.875 -17.675781 20.378906 -17.476562 20.078125 -17.1875 C 19.785156 -16.90625 19.628906 -16.457031 19.609375 -15.84375 L 19.21875 0.421875 Z M 16.125 0.828125 "/></g></g></g></svg>