<svg xmlns="http://www.w3.org/2000/svg" xmlns:xlink="http://www.w3.org/1999/xlink" width="500" zoomAndPan="magnify" viewBox="0 0 375 374.999991" height="500" preserveAspectRatio="xMidYMid meet" version="1.0"><defs><clipPath id="47082f1caa"><path d="M 115 52.21875 L 259 52.21875 L 259 267 L 115 267 Z M 115 52.21875 " clip-rule="nonzero"/></clipPath><clipPath id="7e69d341ec"><path d="M 44.503906 52.21875 L 330.253906 52.21875 L 330.253906 337.21875 L 44.503906 337.21875 Z M 44.503906 52.21875 " clip-rule="nonzero"/></clipPath><clipPath id="99904fe6bd"><path d="M 186 52.21875 L 319 52.21875 L 319 126 L 186 126 Z M 186 52.21875 " clip-rule="nonzero"/></clipPath></defs><g clip-path="url(#47082f1caa)"><path fill="#ff914d" d="M 182.226562 219.804688 C 171.167969 219.804688 162.171875 210.808594 162.171875 199.75 L 162.171875 52.980469 L 115.992188 52.980469 L 115.992188 214.828125 C 115.992188 216.070312 118.136719 228.597656 126.160156 240.984375 C 133.480469 252.292969 147.460938 265.933594 172.535156 266.71875 L 258.984375 266.71875 L 258.984375 219.800781 L 182.226562 219.800781 Z M 182.226562 219.804688 " fill-opacity="1" fill-rule="nonzero"/></g><g clip-path="url(#7e69d341ec)"><path fill="#ff914d" d="M 186.75 148.308594 L 186.75 176.375 C 186.75 187.179688 195.542969 195.972656 206.347656 195.972656 L 284.3125 195.972656 L 284.3125 289.0625 L 159.566406 289.0625 C 145.082031 284.253906 131.601562 276.089844 120.578125 265.4375 C 119.433594 264.335938 118.324219 263.21875 117.285156 262.113281 C 106.117188 250.304688 97.820312 235.863281 93.292969 220.332031 C 92.578125 217.902344 91.949219 215.410156 91.421875 212.914062 L 91.421875 52.234375 L 44.503906 52.234375 L 44.503906 195.285156 C 44.519531 195.496094 46.179688 216.734375 46.546875 220.613281 C 47.808594 234.234375 51.226562 247.484375 56.707031 259.980469 C 57.675781 262.195312 58.675781 264.324219 59.691406 266.3125 C 63.992188 274.839844 69.273438 282.898438 75.382812 290.28125 C 79.90625 295.738281 84.890625 300.835938 90.191406 305.425781 C 98.1875 312.367188 107.007812 318.289062 116.410156 323.03125 C 129.992188 329.898438 160.945312 337.375 161.257812 337.449219 L 330.488281 337.472656 L 330.488281 148.308594 Z M 186.75 148.308594 " fill-opacity="1" fill-rule="nonzero"/></g><g clip-path="url(#99904fe6bd)"><path fill="#ff914d" d="M 257.785156 123.425781 C 258.457031 123.960938 259.132812 124.503906 259.796875 125.050781 L 260.003906 125.21875 L 318.015625 125.21875 L 317.511719 124.152344 C 309.855469 107.972656 299.097656 93.804688 285.539062 82.039062 C 277.339844 74.929688 268.269531 68.878906 258.566406 64.054688 C 247.78125 58.691406 236.296875 54.894531 224.453125 52.769531 C 222.46875 52.414062 220.472656 52.234375 218.515625 52.234375 L 186.75 52.234375 L 186.75 98.625 L 187.445312 98.667969 C 215.609375 100.457031 239.265625 108.785156 257.785156 123.425781 Z M 257.785156 123.425781 " fill-opacity="1" fill-rule="nonzero"/></g></svg>